<svg width="10" height="10" viewBox="0 0 10 10" fill="none" xmlns="http://www.w3.org/2000/svg">
<g clip-path="url(#clip0_86_2)">
<path d="M5 0.9375C4.19652 0.9375 3.41107 1.17576 2.743 1.62215C2.07492 2.06855 1.55422 2.70302 1.24674 3.44535C0.93926 4.18767 0.858809 5.00451 1.01556 5.79255C1.17231 6.5806 1.55923 7.30447 2.12738 7.87262C2.69553 8.44077 3.4194 8.82769 4.20745 8.98444C4.9955 9.14119 5.81233 9.06074 6.55465 8.75326C7.29698 8.44578 7.93145 7.92508 8.37785 7.257C8.82424 6.58893 9.0625 5.80349 9.0625 5C9.06136 3.92291 8.63299 2.89026 7.87137 2.12863C7.10975 1.36701 6.07709 0.938637 5 0.9375ZM5 8.4375C4.32013 8.4375 3.65552 8.23589 3.09023 7.85818C2.52494 7.48046 2.08434 6.9436 1.82417 6.31547C1.56399 5.68735 1.49592 4.99619 1.62855 4.32938C1.76119 3.66257 2.08858 3.05006 2.56932 2.56932C3.05007 2.08858 3.66257 1.76119 4.32938 1.62855C4.99619 1.49591 5.68736 1.56399 6.31548 1.82416C6.9436 2.08434 7.48046 2.52493 7.85818 3.09023C8.2359 3.65552 8.4375 4.32013 8.4375 5C8.43647 5.91136 8.07397 6.78511 7.42954 7.42954C6.78511 8.07397 5.91137 8.43647 5 8.4375ZM4.375 4.0625C4.375 4.14538 4.34208 4.22487 4.28347 4.28347C4.22487 4.34208 4.14538 4.375 4.0625 4.375H3.75V5.9375C3.75 6.02038 3.71708 6.09987 3.65847 6.15847C3.59987 6.21708 3.52038 6.25 3.4375 6.25C3.35462 6.25 3.27514 6.21708 3.21653 6.15847C3.15793 6.09987 3.125 6.02038 3.125 5.9375V4.375H2.8125C2.72962 4.375 2.65014 4.34208 2.59153 4.28347C2.53293 4.22487 2.5 4.14538 2.5 4.0625C2.5 3.97962 2.53293 3.90013 2.59153 3.84153C2.65014 3.78292 2.72962 3.75 2.8125 3.75H4.0625C4.14538 3.75 4.22487 3.78292 4.28347 3.84153C4.34208 3.90013 4.375 3.97962 4.375 4.0625ZM7.5 4.0625V5.9375C7.5 6.02038 7.46708 6.09987 7.40847 6.15847C7.34987 6.21708 7.27038 6.25 7.1875 6.25C7.10462 6.25 7.02514 6.21708 6.96653 6.15847C6.90793 6.09987 6.875 6.02038 6.875 5.9375V4.89414L6.32813 5.51914C6.2988 5.55239 6.26274 5.57902 6.22233 5.59727C6.18192 5.61551 6.13809 5.62494 6.09375 5.62494C6.04942 5.62494 6.00559 5.61551 5.96518 5.59727C5.92477 5.57902 5.8887 5.55239 5.85938 5.51914L5.3125 4.89414V5.9375C5.3125 6.02038 5.27958 6.09987 5.22097 6.15847C5.16237 6.21708 5.08288 6.25 5 6.25C4.91712 6.25 4.83764 6.21708 4.77903 6.15847C4.72043 6.09987 4.6875 6.02038 4.6875 5.9375V4.0625C4.68767 3.9991 4.70712 3.93724 4.74328 3.88516C4.77943 3.83307 4.83057 3.79321 4.88991 3.77087C4.94925 3.74854 5.01398 3.74478 5.0755 3.7601C5.13703 3.77542 5.19244 3.80909 5.23438 3.85664L6.09375 4.83789L6.95313 3.85664C6.99506 3.80909 7.05047 3.77542 7.112 3.7601C7.17353 3.74478 7.23826 3.74854 7.2976 3.77087C7.35693 3.79321 7.40808 3.83307 7.44423 3.88516C7.48038 3.93724 7.49983 3.9991 7.5 4.0625Z" fill="black"/>
</g>
<defs>
<clipPath id="clip0_86_2">
<rect width="10" height="10" fill="white"/>
</clipPath>
</defs>
</svg>
